<?xml version="1.0" encoding="UTF-8" standalone="no"?>
<!DOCTYPE svg PUBLIC "-//W3C//DTD SVG 1.1//EN"
 "http://www.w3.org/Graphics/SVG/1.1/DTD/svg11.dtd">
<!-- Generated by graphviz version 2.47.3 (20210619.1520)
 -->
<!-- Title: dependencies Pages: 1 -->
<svg width="2038pt" height="247pt"
 viewBox="0.00 0.00 2038.00 246.80" xmlns="http://www.w3.org/2000/svg" xmlns:xlink="http://www.w3.org/1999/xlink">
<g id="graph0" class="graph" transform="scale(1 1) rotate(0) translate(4 242.8)">
<title>dependencies</title>
<polygon fill="white" stroke="transparent" points="-4,4 -4,-242.8 2034,-242.8 2034,4 -4,4"/>
<text text-anchor="middle" x="1015" y="-8.2" font-family="sans-serif" font-size="14.00">dependencies</text>
<g id="clust1" class="cluster">
<title>cluster_AppModule</title>
<polygon fill="none" stroke="black" stroke-dasharray="1,5" points="8,-32.8 8,-230.8 2022,-230.8 2022,-32.8 8,-32.8"/>
</g>
<g id="clust14" class="cluster">
<title>cluster_AppModule_imports</title>
<polygon fill="none" stroke="black" points="1870,-40.8 1870,-92.8 2014,-92.8 2014,-40.8 1870,-40.8"/>
</g>
<g id="clust16" class="cluster">
<title>cluster_AppModule_bootstrap</title>
<polygon fill="none" stroke="black" points="1033,-170.8 1033,-222.8 1157,-222.8 1157,-170.8 1033,-170.8"/>
</g>
<g id="clust2" class="cluster">
<title>cluster_AppModule_declarations</title>
<polygon fill="none" stroke="black" points="16,-40.8 16,-92.8 1862,-92.8 1862,-40.8 16,-40.8"/>
</g>
<!-- AppComponent -->
<g id="node1" class="node">
<title>AppComponent</title>
<polygon fill="#ffffb3" stroke="black" points="1853.94,-84.8 1748.06,-84.8 1748.06,-48.8 1853.94,-48.8 1853.94,-84.8"/>
<text text-anchor="middle" x="1801" y="-62.6" font-family="Times,serif" font-size="14.00">AppComponent</text>
</g>
<!-- AppModule -->
<g id="node12" class="node">
<title>AppModule</title>
<polygon fill="#8dd3c7" stroke="black" points="1136.66,-149.8 1133.66,-153.8 1112.66,-153.8 1109.66,-149.8 1053.34,-149.8 1053.34,-113.8 1136.66,-113.8 1136.66,-149.8"/>
<text text-anchor="middle" x="1095" y="-127.6" font-family="Times,serif" font-size="14.00">AppModule</text>
</g>
<!-- AppComponent&#45;&gt;AppModule -->
<g id="edge1" class="edge">
<title>AppComponent&#45;&gt;AppModule</title>
<path fill="none" stroke="black" d="M1801,-85.08C1801,-106.12 1801,-137.8 1801,-137.8 1801,-137.8 1146.79,-137.8 1146.79,-137.8"/>
<polygon fill="black" stroke="black" points="1146.79,-134.3 1136.79,-137.8 1146.79,-141.3 1146.79,-134.3"/>
</g>
<!-- DirectorCardComponent -->
<g id="node2" class="node">
<title>DirectorCardComponent</title>
<polygon fill="#ffffb3" stroke="black" points="1730.68,-84.8 1575.32,-84.8 1575.32,-48.8 1730.68,-48.8 1730.68,-84.8"/>
<text text-anchor="middle" x="1653" y="-62.6" font-family="Times,serif" font-size="14.00">DirectorCardComponent</text>
</g>
<!-- DirectorCardComponent&#45;&gt;AppModule -->
<g id="edge2" class="edge">
<title>DirectorCardComponent&#45;&gt;AppModule</title>
<path fill="none" stroke="black" d="M1653,-84.91C1653,-104.14 1653,-131.8 1653,-131.8 1653,-131.8 1146.94,-131.8 1146.94,-131.8"/>
<polygon fill="black" stroke="black" points="1146.94,-128.3 1136.94,-131.8 1146.94,-135.3 1146.94,-128.3"/>
</g>
<!-- GenreCardComponent -->
<g id="node3" class="node">
<title>GenreCardComponent</title>
<polygon fill="#ffffb3" stroke="black" points="1557.24,-84.8 1414.76,-84.8 1414.76,-48.8 1557.24,-48.8 1557.24,-84.8"/>
<text text-anchor="middle" x="1486" y="-62.6" font-family="Times,serif" font-size="14.00">GenreCardComponent</text>
</g>
<!-- GenreCardComponent&#45;&gt;AppModule -->
<g id="edge3" class="edge">
<title>GenreCardComponent&#45;&gt;AppModule</title>
<path fill="none" stroke="black" d="M1486,-84.82C1486,-102.17 1486,-125.8 1486,-125.8 1486,-125.8 1146.84,-125.8 1146.84,-125.8"/>
<polygon fill="black" stroke="black" points="1146.84,-122.3 1136.84,-125.8 1146.84,-129.3 1146.84,-122.3"/>
</g>
<!-- MovieCardComponent -->
<g id="node4" class="node">
<title>MovieCardComponent</title>
<polygon fill="#ffffb3" stroke="black" points="1396.59,-84.8 1251.41,-84.8 1251.41,-48.8 1396.59,-48.8 1396.59,-84.8"/>
<text text-anchor="middle" x="1324" y="-62.6" font-family="Times,serif" font-size="14.00">MovieCardComponent</text>
</g>
<!-- MovieCardComponent&#45;&gt;AppModule -->
<g id="edge4" class="edge">
<title>MovieCardComponent&#45;&gt;AppModule</title>
<path fill="none" stroke="black" d="M1324,-85.04C1324,-100.37 1324,-119.8 1324,-119.8 1324,-119.8 1146.74,-119.8 1146.74,-119.8"/>
<polygon fill="black" stroke="black" points="1146.74,-116.3 1136.74,-119.8 1146.74,-123.3 1146.74,-116.3"/>
</g>
<!-- NavbarComponent -->
<g id="node5" class="node">
<title>NavbarComponent</title>
<polygon fill="#ffffb3" stroke="black" points="1233.03,-84.8 1110.97,-84.8 1110.97,-48.8 1233.03,-48.8 1233.03,-84.8"/>
<text text-anchor="middle" x="1172" y="-62.6" font-family="Times,serif" font-size="14.00">NavbarComponent</text>
</g>
<!-- NavbarComponent&#45;&gt;AppModule -->
<g id="edge5" class="edge">
<title>NavbarComponent&#45;&gt;AppModule</title>
<path fill="none" stroke="black" d="M1123.78,-84.91C1123.78,-84.91 1123.78,-103.79 1123.78,-103.79"/>
<polygon fill="black" stroke="black" points="1120.28,-103.79 1123.78,-113.79 1127.28,-103.79 1120.28,-103.79"/>
</g>
<!-- ProfileViewComponent -->
<g id="node6" class="node">
<title>ProfileViewComponent</title>
<polygon fill="#ffffb3" stroke="black" points="1092.75,-84.8 943.25,-84.8 943.25,-48.8 1092.75,-48.8 1092.75,-84.8"/>
<text text-anchor="middle" x="1018" y="-62.6" font-family="Times,serif" font-size="14.00">ProfileViewComponent</text>
</g>
<!-- ProfileViewComponent&#45;&gt;AppModule -->
<g id="edge6" class="edge">
<title>ProfileViewComponent&#45;&gt;AppModule</title>
<path fill="none" stroke="black" d="M1073.02,-84.91C1073.02,-84.91 1073.02,-103.79 1073.02,-103.79"/>
<polygon fill="black" stroke="black" points="1069.52,-103.79 1073.02,-113.79 1076.52,-103.79 1069.52,-103.79"/>
</g>
<!-- SynopsisCardComponent -->
<g id="node7" class="node">
<title>SynopsisCardComponent</title>
<polygon fill="#ffffb3" stroke="black" points="925.61,-84.8 766.39,-84.8 766.39,-48.8 925.61,-48.8 925.61,-84.8"/>
<text text-anchor="middle" x="846" y="-62.6" font-family="Times,serif" font-size="14.00">SynopsisCardComponent</text>
</g>
<!-- SynopsisCardComponent&#45;&gt;AppModule -->
<g id="edge7" class="edge">
<title>SynopsisCardComponent&#45;&gt;AppModule</title>
<path fill="none" stroke="black" d="M846,-85.04C846,-100.37 846,-119.8 846,-119.8 846,-119.8 1043.32,-119.8 1043.32,-119.8"/>
<polygon fill="black" stroke="black" points="1043.32,-123.3 1053.32,-119.8 1043.32,-116.3 1043.32,-123.3"/>
</g>
<!-- UserEditComponent -->
<g id="node8" class="node">
<title>UserEditComponent</title>
<polygon fill="#ffffb3" stroke="black" points="748.59,-84.8 617.41,-84.8 617.41,-48.8 748.59,-48.8 748.59,-84.8"/>
<text text-anchor="middle" x="683" y="-62.6" font-family="Times,serif" font-size="14.00">UserEditComponent</text>
</g>
<!-- UserEditComponent&#45;&gt;AppModule -->
<g id="edge8" class="edge">
<title>UserEditComponent&#45;&gt;AppModule</title>
<path fill="none" stroke="black" d="M683,-84.82C683,-102.17 683,-125.8 683,-125.8 683,-125.8 1043.23,-125.8 1043.23,-125.8"/>
<polygon fill="black" stroke="black" points="1043.23,-129.3 1053.23,-125.8 1043.23,-122.3 1043.23,-129.3"/>
</g>
<!-- UserLoginFormComponent -->
<g id="node9" class="node">
<title>UserLoginFormComponent</title>
<polygon fill="#ffffb3" stroke="black" points="599.54,-84.8 428.46,-84.8 428.46,-48.8 599.54,-48.8 599.54,-84.8"/>
<text text-anchor="middle" x="514" y="-62.6" font-family="Times,serif" font-size="14.00">UserLoginFormComponent</text>
</g>
<!-- UserLoginFormComponent&#45;&gt;AppModule -->
<g id="edge9" class="edge">
<title>UserLoginFormComponent&#45;&gt;AppModule</title>
<path fill="none" stroke="black" d="M514,-84.91C514,-104.14 514,-131.8 514,-131.8 514,-131.8 1043.22,-131.8 1043.22,-131.8"/>
<polygon fill="black" stroke="black" points="1043.22,-135.3 1053.22,-131.8 1043.22,-128.3 1043.22,-135.3"/>
</g>
<!-- UserRegistrationFormComponent -->
<g id="node10" class="node">
<title>UserRegistrationFormComponent</title>
<polygon fill="#ffffb3" stroke="black" points="410.03,-84.8 203.97,-84.8 203.97,-48.8 410.03,-48.8 410.03,-84.8"/>
<text text-anchor="middle" x="307" y="-62.6" font-family="Times,serif" font-size="14.00">UserRegistrationFormComponent</text>
</g>
<!-- UserRegistrationFormComponent&#45;&gt;AppModule -->
<g id="edge10" class="edge">
<title>UserRegistrationFormComponent&#45;&gt;AppModule</title>
<path fill="none" stroke="black" d="M307,-85.08C307,-106.12 307,-137.8 307,-137.8 307,-137.8 1043.19,-137.8 1043.19,-137.8"/>
<polygon fill="black" stroke="black" points="1043.19,-141.3 1053.19,-137.8 1043.19,-134.3 1043.19,-141.3"/>
</g>
<!-- WelcomePageComponent -->
<g id="node11" class="node">
<title>WelcomePageComponent</title>
<polygon fill="#ffffb3" stroke="black" points="186.18,-84.8 23.82,-84.8 23.82,-48.8 186.18,-48.8 186.18,-84.8"/>
<text text-anchor="middle" x="105" y="-62.6" font-family="Times,serif" font-size="14.00">WelcomePageComponent</text>
</g>
<!-- WelcomePageComponent&#45;&gt;AppModule -->
<g id="edge11" class="edge">
<title>WelcomePageComponent&#45;&gt;AppModule</title>
<path fill="none" stroke="black" d="M105,-85.05C105,-107.82 105,-143.8 105,-143.8 105,-143.8 1043.09,-143.8 1043.09,-143.8"/>
<polygon fill="black" stroke="black" points="1043.09,-147.3 1053.09,-143.8 1043.09,-140.3 1043.09,-147.3"/>
</g>
<!-- AppComponent  -->
<g id="node14" class="node">
<title>AppComponent </title>
<polygon fill="#80b1d3" stroke="black" points="1149.44,-214.8 1040.56,-214.8 1040.56,-178.8 1149.44,-178.8 1149.44,-214.8"/>
<text text-anchor="middle" x="1095" y="-192.6" font-family="Times,serif" font-size="14.00">AppComponent </text>
</g>
<!-- AppModule&#45;&gt;AppComponent  -->
<g id="edge13" class="edge">
<title>AppModule&#45;&gt;AppComponent </title>
<path fill="none" stroke="black" stroke-dasharray="1,5" d="M1095,-149.91C1095,-149.91 1095,-168.79 1095,-168.79"/>
<polygon fill="black" stroke="black" points="1091.5,-168.79 1095,-178.79 1098.5,-168.79 1091.5,-168.79"/>
</g>
<!-- AppRoutingModule -->
<g id="node13" class="node">
<title>AppRoutingModule</title>
<polygon fill="#8dd3c7" stroke="black" points="2006.27,-84.8 2003.27,-88.8 1982.27,-88.8 1979.27,-84.8 1877.73,-84.8 1877.73,-48.8 2006.27,-48.8 2006.27,-84.8"/>
<text text-anchor="middle" x="1942" y="-62.6" font-family="Times,serif" font-size="14.00">AppRoutingModule</text>
</g>
<!-- AppRoutingModule&#45;&gt;AppModule -->
<g id="edge12" class="edge">
<title>AppRoutingModule&#45;&gt;AppModule</title>
<path fill="none" stroke="black" d="M1942,-85.05C1942,-107.82 1942,-143.8 1942,-143.8 1942,-143.8 1146.71,-143.8 1146.71,-143.8"/>
<polygon fill="black" stroke="black" points="1146.71,-140.3 1136.71,-143.8 1146.71,-147.3 1146.71,-140.3"/>
</g>
</g>
</svg>
