<?xml version="1.0" encoding="UTF-8" standalone="no"?>
<!DOCTYPE svg PUBLIC "-//W3C//DTD SVG 1.1//EN"
 "http://www.w3.org/Graphics/SVG/1.1/DTD/svg11.dtd">
<!-- Generated by graphviz version 2.47.3 (20210619.1520)
 -->
<!-- Title: dependencies Pages: 1 -->
<svg width="2038pt" height="247pt"
 viewBox="0.00 0.00 2038.00 246.80" xmlns="http://www.w3.org/2000/svg" xmlns:xlink="http://www.w3.org/1999/xlink">
<g id="graph0" class="graph" transform="scale(1 1) rotate(0) translate(4 242.8)">
<title>dependencies</title>
<polygon fill="white" stroke="transparent" points="-4,4 -4,-242.8 2034,-242.8 2034,4 -4,4"/>
<text text-anchor="middle" x="1015" y="-8.2" font-family="sans-serif" font-size="14.00">dependencies</text>
<g id="clust1" class="cluster">
<title>cluster_AppModule</title>
<polygon fill="none" stroke="black" stroke-dasharray="1,5" points="8,-32.8 8,-230.8 2022,-230.8 2022,-32.8 8,-32.8"/>
</g>
<g id="clust2" class="cluster">
<title>cluster_AppModule_declarations</title>
<polygon fill="none" stroke="black" points="168,-40.8 168,-92.8 2014,-92.8 2014,-40.8 168,-40.8"/>
</g>
<g id="clust14" class="cluster">
<title>cluster_AppModule_imports</title>
<polygon fill="none" stroke="black" points="16,-40.8 16,-92.8 160,-92.8 160,-40.8 16,-40.8"/>
</g>
<g id="clust16" class="cluster">
<title>cluster_AppModule_bootstrap</title>
<polygon fill="none" stroke="black" points="1022,-170.8 1022,-222.8 1146,-222.8 1146,-170.8 1022,-170.8"/>
</g>
<!-- AppComponent -->
<g id="node1" class="node">
<title>AppComponent</title>
<polygon fill="#ffffb3" stroke="black" points="2005.94,-84.8 1900.06,-84.8 1900.06,-48.8 2005.94,-48.8 2005.94,-84.8"/>
<text text-anchor="middle" x="1953" y="-62.6" font-family="Times,serif" font-size="14.00">AppComponent</text>
</g>
<!-- AppModule -->
<g id="node12" class="node">
<title>AppModule</title>
<polygon fill="#8dd3c7" stroke="black" points="1125.66,-149.8 1122.66,-153.8 1101.66,-153.8 1098.66,-149.8 1042.34,-149.8 1042.34,-113.8 1125.66,-113.8 1125.66,-149.8"/>
<text text-anchor="middle" x="1084" y="-127.6" font-family="Times,serif" font-size="14.00">AppModule</text>
</g>
<!-- AppComponent&#45;&gt;AppModule -->
<g id="edge1" class="edge">
<title>AppComponent&#45;&gt;AppModule</title>
<path fill="none" stroke="black" d="M1953,-85.05C1953,-107.82 1953,-143.8 1953,-143.8 1953,-143.8 1135.91,-143.8 1135.91,-143.8"/>
<polygon fill="black" stroke="black" points="1135.91,-140.3 1125.91,-143.8 1135.91,-147.3 1135.91,-140.3"/>
</g>
<!-- DirectorCardComponent -->
<g id="node2" class="node">
<title>DirectorCardComponent</title>
<polygon fill="#ffffb3" stroke="black" points="1882.68,-84.8 1727.32,-84.8 1727.32,-48.8 1882.68,-48.8 1882.68,-84.8"/>
<text text-anchor="middle" x="1805" y="-62.6" font-family="Times,serif" font-size="14.00">DirectorCardComponent</text>
</g>
<!-- DirectorCardComponent&#45;&gt;AppModule -->
<g id="edge2" class="edge">
<title>DirectorCardComponent&#45;&gt;AppModule</title>
<path fill="none" stroke="black" d="M1805,-85.08C1805,-106.12 1805,-137.8 1805,-137.8 1805,-137.8 1135.88,-137.8 1135.88,-137.8"/>
<polygon fill="black" stroke="black" points="1135.88,-134.3 1125.88,-137.8 1135.88,-141.3 1135.88,-134.3"/>
</g>
<!-- GenreCardComponent -->
<g id="node3" class="node">
<title>GenreCardComponent</title>
<polygon fill="#ffffb3" stroke="black" points="1709.24,-84.8 1566.76,-84.8 1566.76,-48.8 1709.24,-48.8 1709.24,-84.8"/>
<text text-anchor="middle" x="1638" y="-62.6" font-family="Times,serif" font-size="14.00">GenreCardComponent</text>
</g>
<!-- GenreCardComponent&#45;&gt;AppModule -->
<g id="edge3" class="edge">
<title>GenreCardComponent&#45;&gt;AppModule</title>
<path fill="none" stroke="black" d="M1638,-84.91C1638,-104.14 1638,-131.8 1638,-131.8 1638,-131.8 1136.09,-131.8 1136.09,-131.8"/>
<polygon fill="black" stroke="black" points="1136.09,-128.3 1126.09,-131.8 1136.09,-135.3 1136.09,-128.3"/>
</g>
<!-- MovieCardComponent -->
<g id="node4" class="node">
<title>MovieCardComponent</title>
<polygon fill="#ffffb3" stroke="black" points="1548.59,-84.8 1403.41,-84.8 1403.41,-48.8 1548.59,-48.8 1548.59,-84.8"/>
<text text-anchor="middle" x="1476" y="-62.6" font-family="Times,serif" font-size="14.00">MovieCardComponent</text>
</g>
<!-- MovieCardComponent&#45;&gt;AppModule -->
<g id="edge4" class="edge">
<title>MovieCardComponent&#45;&gt;AppModule</title>
<path fill="none" stroke="black" d="M1476,-84.82C1476,-102.17 1476,-125.8 1476,-125.8 1476,-125.8 1135.95,-125.8 1135.95,-125.8"/>
<polygon fill="black" stroke="black" points="1135.95,-122.3 1125.95,-125.8 1135.95,-129.3 1135.95,-122.3"/>
</g>
<!-- NavbarComponent -->
<g id="node5" class="node">
<title>NavbarComponent</title>
<polygon fill="#ffffb3" stroke="black" points="1385.03,-84.8 1262.97,-84.8 1262.97,-48.8 1385.03,-48.8 1385.03,-84.8"/>
<text text-anchor="middle" x="1324" y="-62.6" font-family="Times,serif" font-size="14.00">NavbarComponent</text>
</g>
<!-- NavbarComponent&#45;&gt;AppModule -->
<g id="edge5" class="edge">
<title>NavbarComponent&#45;&gt;AppModule</title>
<path fill="none" stroke="black" d="M1324,-85.04C1324,-100.37 1324,-119.8 1324,-119.8 1324,-119.8 1135.8,-119.8 1135.8,-119.8"/>
<polygon fill="black" stroke="black" points="1135.8,-116.3 1125.8,-119.8 1135.8,-123.3 1135.8,-116.3"/>
</g>
<!-- ProfileViewComponent -->
<g id="node6" class="node">
<title>ProfileViewComponent</title>
<polygon fill="#ffffb3" stroke="black" points="1244.75,-84.8 1095.25,-84.8 1095.25,-48.8 1244.75,-48.8 1244.75,-84.8"/>
<text text-anchor="middle" x="1170" y="-62.6" font-family="Times,serif" font-size="14.00">ProfileViewComponent</text>
</g>
<!-- ProfileViewComponent&#45;&gt;AppModule -->
<g id="edge6" class="edge">
<title>ProfileViewComponent&#45;&gt;AppModule</title>
<path fill="none" stroke="black" d="M1110.48,-84.91C1110.48,-84.91 1110.48,-103.79 1110.48,-103.79"/>
<polygon fill="black" stroke="black" points="1106.98,-103.79 1110.48,-113.79 1113.98,-103.79 1106.98,-103.79"/>
</g>
<!-- SynopsisCardComponent -->
<g id="node7" class="node">
<title>SynopsisCardComponent</title>
<polygon fill="#ffffb3" stroke="black" points="1077.61,-84.8 918.39,-84.8 918.39,-48.8 1077.61,-48.8 1077.61,-84.8"/>
<text text-anchor="middle" x="998" y="-62.6" font-family="Times,serif" font-size="14.00">SynopsisCardComponent</text>
</g>
<!-- SynopsisCardComponent&#45;&gt;AppModule -->
<g id="edge7" class="edge">
<title>SynopsisCardComponent&#45;&gt;AppModule</title>
<path fill="none" stroke="black" d="M1059.86,-84.91C1059.86,-84.91 1059.86,-103.79 1059.86,-103.79"/>
<polygon fill="black" stroke="black" points="1056.36,-103.79 1059.86,-113.79 1063.36,-103.79 1056.36,-103.79"/>
</g>
<!-- UserEditComponent -->
<g id="node8" class="node">
<title>UserEditComponent</title>
<polygon fill="#ffffb3" stroke="black" points="900.59,-84.8 769.41,-84.8 769.41,-48.8 900.59,-48.8 900.59,-84.8"/>
<text text-anchor="middle" x="835" y="-62.6" font-family="Times,serif" font-size="14.00">UserEditComponent</text>
</g>
<!-- UserEditComponent&#45;&gt;AppModule -->
<g id="edge8" class="edge">
<title>UserEditComponent&#45;&gt;AppModule</title>
<path fill="none" stroke="black" d="M835,-85.04C835,-100.37 835,-119.8 835,-119.8 835,-119.8 1032.32,-119.8 1032.32,-119.8"/>
<polygon fill="black" stroke="black" points="1032.32,-123.3 1042.32,-119.8 1032.32,-116.3 1032.32,-123.3"/>
</g>
<!-- UserLoginFormComponent -->
<g id="node9" class="node">
<title>UserLoginFormComponent</title>
<polygon fill="#ffffb3" stroke="black" points="751.54,-84.8 580.46,-84.8 580.46,-48.8 751.54,-48.8 751.54,-84.8"/>
<text text-anchor="middle" x="666" y="-62.6" font-family="Times,serif" font-size="14.00">UserLoginFormComponent</text>
</g>
<!-- UserLoginFormComponent&#45;&gt;AppModule -->
<g id="edge9" class="edge">
<title>UserLoginFormComponent&#45;&gt;AppModule</title>
<path fill="none" stroke="black" d="M666,-84.82C666,-102.17 666,-125.8 666,-125.8 666,-125.8 1032.01,-125.8 1032.01,-125.8"/>
<polygon fill="black" stroke="black" points="1032.01,-129.3 1042.01,-125.8 1032.01,-122.3 1032.01,-129.3"/>
</g>
<!-- UserRegistrationFormComponent -->
<g id="node10" class="node">
<title>UserRegistrationFormComponent</title>
<polygon fill="#ffffb3" stroke="black" points="562.03,-84.8 355.97,-84.8 355.97,-48.8 562.03,-48.8 562.03,-84.8"/>
<text text-anchor="middle" x="459" y="-62.6" font-family="Times,serif" font-size="14.00">UserRegistrationFormComponent</text>
</g>
<!-- UserRegistrationFormComponent&#45;&gt;AppModule -->
<g id="edge10" class="edge">
<title>UserRegistrationFormComponent&#45;&gt;AppModule</title>
<path fill="none" stroke="black" d="M459,-84.91C459,-104.14 459,-131.8 459,-131.8 459,-131.8 1032.02,-131.8 1032.02,-131.8"/>
<polygon fill="black" stroke="black" points="1032.02,-135.3 1042.02,-131.8 1032.02,-128.3 1032.02,-135.3"/>
</g>
<!-- WelcomePageComponent -->
<g id="node11" class="node">
<title>WelcomePageComponent</title>
<polygon fill="#ffffb3" stroke="black" points="338.18,-84.8 175.82,-84.8 175.82,-48.8 338.18,-48.8 338.18,-84.8"/>
<text text-anchor="middle" x="257" y="-62.6" font-family="Times,serif" font-size="14.00">WelcomePageComponent</text>
</g>
<!-- WelcomePageComponent&#45;&gt;AppModule -->
<g id="edge11" class="edge">
<title>WelcomePageComponent&#45;&gt;AppModule</title>
<path fill="none" stroke="black" d="M257,-85.08C257,-106.12 257,-137.8 257,-137.8 257,-137.8 1032.14,-137.8 1032.14,-137.8"/>
<polygon fill="black" stroke="black" points="1032.14,-141.3 1042.14,-137.8 1032.14,-134.3 1032.14,-141.3"/>
</g>
<!-- AppComponent  -->
<g id="node14" class="node">
<title>AppComponent </title>
<polygon fill="#80b1d3" stroke="black" points="1138.44,-214.8 1029.56,-214.8 1029.56,-178.8 1138.44,-178.8 1138.44,-214.8"/>
<text text-anchor="middle" x="1084" y="-192.6" font-family="Times,serif" font-size="14.00">AppComponent </text>
</g>
<!-- AppModule&#45;&gt;AppComponent  -->
<g id="edge13" class="edge">
<title>AppModule&#45;&gt;AppComponent </title>
<path fill="none" stroke="black" stroke-dasharray="1,5" d="M1084,-149.91C1084,-149.91 1084,-168.79 1084,-168.79"/>
<polygon fill="black" stroke="black" points="1080.5,-168.79 1084,-178.79 1087.5,-168.79 1080.5,-168.79"/>
</g>
<!-- AppRoutingModule -->
<g id="node13" class="node">
<title>AppRoutingModule</title>
<polygon fill="#8dd3c7" stroke="black" points="152.27,-84.8 149.27,-88.8 128.27,-88.8 125.27,-84.8 23.73,-84.8 23.73,-48.8 152.27,-48.8 152.27,-84.8"/>
<text text-anchor="middle" x="88" y="-62.6" font-family="Times,serif" font-size="14.00">AppRoutingModule</text>
</g>
<!-- AppRoutingModule&#45;&gt;AppModule -->
<g id="edge12" class="edge">
<title>AppRoutingModule&#45;&gt;AppModule</title>
<path fill="none" stroke="black" d="M88,-85.05C88,-107.82 88,-143.8 88,-143.8 88,-143.8 1032.16,-143.8 1032.16,-143.8"/>
<polygon fill="black" stroke="black" points="1032.16,-147.3 1042.16,-143.8 1032.16,-140.3 1032.16,-147.3"/>
</g>
</g>
</svg>
